<?xml version="1.0" encoding="UTF-8"?>
<svg id="Capa_2" data-name="Capa 2" xmlns="http://www.w3.org/2000/svg" xmlns:xlink="http://www.w3.org/1999/xlink" viewBox="0 0 600 182.99">
  <defs>
    <style>
      .cls-1 {
        fill: #fff;
      }

      .cls-2 {
        fill: url(#Degradado_sin_nombre_27);
      }

      .cls-3 {
        fill: #51d3ff;
      }
    </style>
    <linearGradient id="Degradado_sin_nombre_27" data-name="Degradado sin nombre 27" x1="170.53" y1="45.36" x2="12.47" y2="137.63" gradientUnits="userSpaceOnUse">
      <stop offset=".15" stop-color="#2abaff"/>
      <stop offset="1" stop-color="#00647f"/>
    </linearGradient>
  </defs>
  <g id="Capa_1-2" data-name="Capa 1">
    <g>
      <g>
        <path class="cls-3" d="M226.03,36.16h13.01l12.15,44.62h-8.06l-10.6-38.3-10.6,38.3h-8.12l12.21-44.62Z"/>
        <path class="cls-3" d="M270.47,81.08c-2.23,0-4.36-.34-6.38-1.02-2.02-.68-3.79-1.69-5.3-3.04-1.51-1.34-2.72-2.99-3.63-4.96-.91-1.96-1.36-4.22-1.36-6.79v-29.13h8.12v29.13c0,1.24.22,2.37.65,3.38.43,1.01,1.03,1.87,1.8,2.57.76.7,1.66,1.24,2.7,1.61,1.03.37,2.17.56,3.41.56s2.38-.19,3.41-.56c1.03-.37,1.93-.91,2.7-1.61.76-.7,1.36-1.56,1.8-2.57.43-1.01.65-2.14.65-3.38v-29.13h8.12v29.13c0,2.56-.44,4.82-1.33,6.79-.89,1.96-2.1,3.62-3.63,4.96-1.53,1.34-3.31,2.35-5.33,3.04-2.02.68-4.15,1.02-6.38,1.02Z"/>
        <path class="cls-3" d="M293.58,36.16h19.77c2.11,0,4,.28,5.67.84,1.67.56,3.11,1.34,4.31,2.35,1.2,1.01,2.12,2.24,2.76,3.69.64,1.45.96,3.06.96,4.83,0,1.61-.24,3.02-.71,4.21-.48,1.2-1.08,2.25-1.83,3.16-.74.91-1.53,1.7-2.35,2.39-.83.68-1.61,1.31-2.36,1.89-.74.58-1.35,1.14-1.83,1.67-.48.54-.71,1.12-.71,1.73,0,.74.35,1.71,1.05,2.91l9.05,14.93h-9.17l-7.13-11.77c-1.41-2.27-2.11-4.34-2.11-6.2,0-1.2.25-2.28.74-3.25.5-.97,1.12-1.86,1.86-2.66.74-.81,1.54-1.57,2.39-2.29.85-.72,1.64-1.45,2.39-2.17.74-.72,1.36-1.47,1.86-2.23.5-.76.74-1.6.74-2.51,0-1.24-.49-2.2-1.46-2.88-.97-.68-2.35-1.02-4.12-1.02h-11.65v37h-8.12v-44.62Z"/>
        <path class="cls-3" d="M348.11,81.08c-2.23,0-4.36-.34-6.38-1.02-2.02-.68-3.79-1.69-5.3-3.04-1.51-1.34-2.72-2.99-3.63-4.96-.91-1.96-1.36-4.22-1.36-6.79v-29.13h8.12v29.13c0,1.24.22,2.37.65,3.38.43,1.01,1.03,1.87,1.8,2.57.76.7,1.66,1.24,2.7,1.61,1.03.37,2.17.56,3.41.56s2.38-.19,3.41-.56c1.03-.37,1.93-.91,2.7-1.61.76-.7,1.36-1.56,1.8-2.57.43-1.01.65-2.14.65-3.38v-29.13h8.12v29.13c0,2.56-.44,4.82-1.33,6.79-.89,1.96-2.1,3.62-3.63,4.96-1.53,1.34-3.31,2.35-5.33,3.04-2.02.68-4.15,1.02-6.38,1.02Z"/>
        <path class="cls-3" d="M371.23,36.16h7.13l14.13,24.66,14.32-24.66h7.13v44.62h-8.12v-28.2l-13.32,22.93-13.14-22.99v28.26h-8.12v-44.62Z"/>
        <path d="M235.83,147.56c-3.51,0-6.63-.61-9.36-1.83-2.73-1.22-5.03-2.86-6.91-4.93-1.88-2.06-3.31-4.45-4.28-7.16-.97-2.71-1.46-5.53-1.46-8.46s.48-5.74,1.46-8.43c.97-2.68,2.39-5.05,4.28-7.09,1.88-2.04,4.18-3.68,6.91-4.9,2.73-1.22,5.85-1.83,9.36-1.83h11.9v7.62h-11.9c-2.15,0-4.09.39-5.83,1.18-1.73.79-3.19,1.85-4.37,3.19-1.18,1.34-2.09,2.89-2.73,4.65-.64,1.76-.96,3.62-.96,5.61s.32,3.86.96,5.64c.64,1.78,1.55,3.34,2.73,4.68,1.18,1.34,2.63,2.42,4.37,3.22,1.74.81,3.68,1.21,5.83,1.21h11.9v7.62h-11.9Z"/>
        <path d="M269.47,147.87c-2.23,0-4.36-.34-6.38-1.02-2.02-.68-3.79-1.69-5.3-3.04-1.51-1.34-2.72-2.99-3.63-4.96-.91-1.96-1.36-4.22-1.36-6.79v-29.13h8.12v29.13c0,1.24.22,2.37.65,3.38.43,1.01,1.03,1.87,1.8,2.57.76.7,1.66,1.24,2.7,1.61,1.03.37,2.17.56,3.41.56s2.38-.19,3.41-.56c1.03-.37,1.93-.91,2.7-1.61.76-.7,1.36-1.56,1.8-2.57.43-1.01.65-2.14.65-3.38v-29.13h8.12v29.13c0,2.56-.44,4.82-1.33,6.79-.89,1.96-2.1,3.62-3.63,4.96-1.53,1.34-3.31,2.35-5.33,3.04-2.02.68-4.15,1.02-6.38,1.02Z"/>
        <path d="M291.91,139.93h17.23c1.69,0,3.04-.44,4.03-1.33.99-.89,1.49-2.1,1.49-3.63,0-1.32-.38-2.44-1.15-3.35-.77-.91-1.85-1.51-3.25-1.8l-8.37-1.74c-3.39-.74-6.01-2.22-7.87-4.43-1.86-2.21-2.79-4.97-2.79-8.27,0-1.9.32-3.61.96-5.14.64-1.53,1.55-2.84,2.73-3.94,1.18-1.09,2.61-1.93,4.31-2.51,1.69-.58,3.57-.87,5.64-.87h17.23v7.62h-17.23c-1.69,0-3.04.44-4.03,1.33-.99.89-1.49,2.08-1.49,3.56,0,1.32.39,2.44,1.18,3.35.78.91,1.88,1.51,3.28,1.8l8.37,1.8c3.35.7,5.95,2.16,7.81,4.37,1.86,2.21,2.79,4.97,2.79,8.27,0,3.88-1.22,6.94-3.66,9.17-2.44,2.23-5.76,3.35-9.98,3.35h-17.23v-7.62Z"/>
        <path d="M339.38,110.56h-12.89v-7.62h33.9v7.62h-12.89v37h-8.12v-37Z"/>
        <path d="M382.51,147.87c-3.22,0-6.19-.57-8.89-1.7-2.71-1.14-5.03-2.71-6.97-4.71-1.94-2-3.46-4.4-4.56-7.19-1.1-2.79-1.64-5.86-1.64-9.2s.54-6.33,1.61-9.08c1.07-2.75,2.59-5.11,4.55-7.1,1.96-1.98,4.3-3.52,7-4.62,2.7-1.09,5.67-1.64,8.89-1.64s6.18.55,8.86,1.64c2.68,1.1,5.01,2.63,6.97,4.62,1.96,1.98,3.48,4.35,4.56,7.1,1.07,2.75,1.61,5.77,1.61,9.08s-.55,6.41-1.64,9.2c-1.1,2.79-2.61,5.18-4.55,7.19-1.94,2-4.26,3.57-6.94,4.71-2.69,1.14-5.64,1.7-8.86,1.7ZM382.51,140.24c2.07,0,3.95-.37,5.64-1.12,1.69-.74,3.15-1.79,4.37-3.13,1.22-1.34,2.17-2.94,2.85-4.8.68-1.86,1.02-3.92,1.02-6.2s-.33-4.19-.99-6.01c-.66-1.82-1.6-3.38-2.82-4.68-1.22-1.3-2.69-2.3-4.4-3.01-1.71-.7-3.61-1.05-5.67-1.05s-4.02.35-5.73,1.05c-1.71.7-3.18,1.7-4.4,3.01-1.22,1.3-2.16,2.86-2.82,4.68-.66,1.82-.99,3.82-.99,6.01s.34,4.34,1.02,6.2c.68,1.86,1.63,3.46,2.85,4.8,1.22,1.34,2.68,2.39,4.4,3.13,1.71.74,3.6,1.12,5.67,1.12Z"/>
        <path d="M409.59,102.94h7.13l14.13,24.66,14.32-24.66h7.13v44.62h-8.12v-28.2l-13.32,22.93-13.14-22.99v28.26h-8.12v-44.62Z"/>
        <path d="M458.05,139.93h17.23c1.69,0,3.04-.44,4.03-1.33.99-.89,1.49-2.1,1.49-3.63,0-1.32-.38-2.44-1.15-3.35-.76-.91-1.85-1.51-3.25-1.8l-8.37-1.74c-3.39-.74-6.01-2.22-7.87-4.43-1.86-2.21-2.79-4.97-2.79-8.27,0-1.9.32-3.61.96-5.14.64-1.53,1.55-2.84,2.73-3.94,1.18-1.09,2.61-1.93,4.31-2.51,1.69-.58,3.57-.87,5.64-.87h17.23v7.62h-17.23c-1.7,0-3.04.44-4.03,1.33-.99.89-1.49,2.08-1.49,3.56,0,1.32.39,2.44,1.18,3.35.78.91,1.88,1.51,3.28,1.8l8.37,1.8c3.35.7,5.95,2.16,7.81,4.37,1.86,2.21,2.79,4.97,2.79,8.27,0,3.88-1.22,6.94-3.66,9.17-2.44,2.23-5.76,3.35-9.98,3.35h-17.23v-7.62Z"/>
        <path d="M515.56,141.41h13.88c1.36,0,2.45-.36,3.25-1.07.8-.72,1.2-1.69,1.2-2.92,0-1.07-.31-1.96-.92-2.7-.62-.73-1.49-1.21-2.62-1.45l-6.74-1.4c-2.73-.6-4.84-1.79-6.34-3.57-1.5-1.78-2.25-4-2.25-6.67,0-1.53.26-2.91.77-4.14.52-1.23,1.25-2.29,2.2-3.17.95-.88,2.11-1.56,3.47-2.02,1.36-.47,2.88-.7,4.54-.7h13.88v6.14h-13.88c-1.36,0-2.45.36-3.24,1.07-.8.72-1.2,1.67-1.2,2.87,0,1.07.32,1.96.95,2.7.63.73,1.52,1.22,2.65,1.45l6.74,1.45c2.7.57,4.79,1.74,6.29,3.52,1.5,1.78,2.25,4,2.25,6.67,0,3.13-.98,5.59-2.95,7.39-1.97,1.8-4.65,2.7-8.04,2.7h-13.88v-6.14Z"/>
        <path d="M551.91,111.6h10.49l9.79,35.95h-6.49l-8.54-30.86-8.54,30.86h-6.54l9.84-35.95Z"/>
        <path d="M590.41,147.56c-2.83,0-5.34-.49-7.54-1.47-2.2-.98-4.05-2.3-5.57-3.97-1.52-1.66-2.66-3.59-3.45-5.77-.78-2.18-1.17-4.45-1.17-6.82s.39-4.63,1.17-6.79c.78-2.16,1.93-4.07,3.45-5.72,1.51-1.65,3.37-2.96,5.57-3.94,2.2-.98,4.71-1.47,7.54-1.47h9.59v6.14h-9.59c-1.73,0-3.3.32-4.69.95-1.4.63-2.57,1.49-3.52,2.57-.95,1.08-1.68,2.33-2.2,3.75-.52,1.42-.77,2.92-.77,4.52s.26,3.11.77,4.54c.52,1.43,1.25,2.69,2.2,3.77.95,1.08,2.12,1.95,3.52,2.6,1.4.65,2.96.97,4.69.97h9.59v6.14h-9.59Z"/>
      </g>
      <circle class="cls-2" cx="91.5" cy="91.5" r="91.5"/>
      <g>
        <path class="cls-1" d="M142.47,79.53c-.28,2.68-.71,5.39-1.27,8.12-6.56,31.58-29.88,53.45-52.09,48.84-22.2-4.61-34.89-33.95-28.33-65.54,4.84-23.31,18.81-41.32,34.72-47.3-1.07-.05-2.15-.08-3.24-.08-38.24,0-69.25,31-69.25,69.25s31,69.24,69.25,69.24c30.59,0,56.55-19.83,65.71-47.35l-15.49-35.18Z"/>
        <path class="cls-1" d="M78.94,40.96s.14,20.74,5.05,43.27c-14.77,10.08-18.71,19.88-18.71,19.88,4.22,13.9,10.68,19.62,10.68,19.62,4.7-9.31,10.31-14.97,14.28-18.13,3.04,7.89,6.9,15.22,11.79,21.11,0,0,13.33-2.81,18.87-14.4,0,0-20.71-39.53-24.68-86.96,0,0-8.01,3.04-17.28,15.62Z"/>
      </g>
    </g>
  </g>
</svg>